<?xml version="1.0" encoding="iso-8859-1"?>
<!-- Uploaded to: SVG Repo, www.svgrepo.com, Generator: SVG Repo Mixer Tools -->
<svg height="800px" width="800px" version="1.1" id="Layer_1" xmlns="http://www.w3.org/2000/svg" xmlns:xlink="http://www.w3.org/1999/xlink" 
	 viewBox="0 0 504.549 504.549" xml:space="preserve">
<g transform="translate(1 1)">
	<path style="fill:#FFD0A1;" d="M449.629,59.02c16.213,9.387,22.187,30.72,12.8,46.933l-67.413,118.613l-2.56,0.853
		c0-0.853-0.853-1.707-0.853-2.56l-25.6-95.573l2.56-0.853l34.987-54.613C413.789,53.047,432.562,49.633,449.629,59.02"/>
	<path style="fill:#FFD0A1;" d="M147.549,304.78c2.56,8.533-9.387,0-9.387,0l-49.493-29.013c0-17.067,3.413-36.693,3.413-36.693
		c8.533-29.013,25.6-48.64,25.6-48.64L147.549,304.78z"/>
	<path style="fill:#FFD0A1;" d="M335.282,52.193L335.282,52.193l-20.48,30.72l0.853,1.707c-10.24,6.827-17.067,20.48-12.8,37.547
		l26.453,98.987L287.496,64.14c-3.413-11.947-10.24-19.627-17.92-23.04l0.853-1.707l19.627-24.747
		c11.093-11.947,27.307-13.653,37.547-7.68C338.696,14.647,345.522,34.273,335.282,52.193"/>
	<path style="fill:#FFD0A1;" d="M498.269,310.753c0.853,5.12-0.853,8.533-5.12,10.24c0,0-21.333,6.827-33.28,10.24
		c-11.947,3.413-25.6,7.68-40.96,13.653h-0.853c-1.707-19.627-5.973-39.253-11.093-61.44l2.56-0.853
		c10.24-3.413,30.72-10.24,30.72-10.24c17.92-5.12,52.053,14.507,56.32,32.427L498.269,310.753z"/>
	<path style="fill:#FFD0A1;" d="M88.669,276.62l49.493,29.013c0,0,11.947,8.533,9.387,0l-30.72-114.347l-24.747-92.16
		c-5.12-17.92,5.973-36.693,23.893-41.813c17.92-5.12,35.84,3.413,41.813,23.893l-2.56-8.533
		c-5.12-19.627,5.973-36.693,23.893-41.813c17.92-5.12,36.693,5.12,41.813,23.893l6.827,23.893c0,0,0,0,0,0.853l41.813,157.013
		L227.762,79.5c-5.12-19.627,6.827-36.693,20.48-40.107c5.973-1.707,12.8-0.853,19.627,2.56c7.68,3.413,15.36,11.093,17.92,23.04
		l41.813,157.013l-26.453-98.987c-4.267-17.067,2.56-30.72,12.8-37.547c2.56-1.707,5.12-2.56,6.827-3.413
		c14.507-3.413,31.573,4.267,37.547,25.6l5.12,20.48l25.6,95.573c0,0.853,0.853,1.707,0.853,2.56
		c5.973,22.187,11.093,40.96,15.36,58.027c5.973,23.04,9.387,41.813,11.093,61.44c3.413,29.013,2.56,58.88-2.56,100.693
		L215.816,499.34c-19.627-39.253-51.2-76.8-85.333-108.373s-69.12-58.027-95.573-72.533c-10.24-5.973-29.867-18.773-29.867-18.773
		c-3.413-2.56-4.267-6.827-2.56-11.093l2.56-5.12c9.387-16.213,46.933-26.453,63.147-17.067L88.669,276.62z"/>
	<path style="fill:#FFD0A1;" d="M335.282,52.193L335.282,52.193l12.8-22.187c10.24-17.067,30.72-22.187,46.933-12.8
		s22.187,29.013,12.8,46.933l-4.267,7.68l-34.987,54.613l-2.56,0.853l-5.12-20.48c-5.973-20.48-23.893-29.013-37.547-25.6
		c-2.56,0.853-5.12,1.707-6.827,3.413l-0.853-1.707L335.282,52.193z"/>
</g>
<path style="fill:#51565F;" d="M218.522,503.753c-1.707,0-3.413-0.853-4.267-2.56c-38.4-77.653-128-149.333-179.2-179.2
	c-10.24-5.973-29.013-17.92-29.867-18.773c-5.12-4.267-6.827-10.24-3.413-17.067l3.413-5.12c10.24-17.92,50.347-29.013,69.12-18.773
	l40.107,23.04c1.707,0.853,2.56,3.413,1.707,5.973c-0.853,1.707-3.413,2.56-5.973,1.707l-40.107-23.04
	c-14.507-8.533-49.493,0.853-57.173,15.36l-2.56,5.12c-1.707,3.413,0,5.12,0.853,5.973l0,0c0,0,18.773,11.947,29.013,17.92
	c51.2,29.867,140.8,101.547,180.907,180.053l192-51.2c10.24-87.893,1.707-122.027-24.747-218.453l-30.72-115.2
	c-5.12-17.92-20.48-25.6-32.427-22.187c-11.947,3.413-22.187,17.067-17.067,35.84l26.453,98.987c0.853,2.56-0.853,4.267-3.413,5.12
	c-2.56,0.853-4.267-0.853-5.12-3.413L284.229,66.847c-5.12-17.92-20.48-25.6-32.427-22.187c-11.947,3.413-21.333,17.92-17.067,35.84
	l41.813,157.013c0.853,2.56-0.853,4.267-3.413,5.12c-2.56,0.853-4.267-0.853-5.12-3.413v-1.707L219.376,57.46
	c-2.56-7.68-6.827-14.507-13.653-18.773c-6.827-3.413-14.507-5.12-22.187-2.56c-7.68,1.707-14.507,6.827-17.92,13.653
	c-4.267,6.827-5.12,15.36-2.56,23.04l48.64,181.76c0.853,2.56-0.853,4.267-3.413,5.12c-2.56,0.853-4.267-0.853-5.12-3.413
	l-46.08-173.227c-2.56-8.533-6.827-15.36-14.507-18.773c-6.827-3.413-14.507-4.267-22.187-1.707
	c-7.68,1.707-14.507,6.827-17.92,13.653c-4.267,6.827-5.12,15.36-2.56,23.04l55.467,205.653c0.853,2.56-0.853,4.267-3.413,5.12
	c-2.56,0.853-4.267-0.853-5.12-3.413l-28.16-105.813c-5.973,7.68-14.507,22.187-19.627,40.107c-0.853,2.56-3.413,3.413-5.12,2.56
	c-2.56-0.853-3.413-3.413-2.56-5.12c6.827-24.747,20.48-42.667,24.747-48.64l-23.893-89.6c-2.56-10.24-1.707-20.48,3.413-29.013
	s13.653-15.36,23.04-17.92c10.24-2.56,20.48-1.707,29.013,2.56c2.56,0.853,4.267,2.56,6.827,4.267
	c0.853-5.973,2.56-11.093,5.12-15.36c5.12-8.533,13.653-14.507,23.04-17.067c10.24-2.56,20.48-1.707,29.013,3.413
	s15.36,13.653,17.92,23.893v0.853c4.267-10.24,11.947-17.067,21.333-19.627c16.213-4.267,36.693,5.12,42.667,28.16l8.533,33.28
	c4.267-9.387,12.8-16.213,21.333-18.773c16.213-4.267,36.693,5.12,42.667,28.16l30.72,115.2c13.653,51.2,23.04,84.48,26.453,117.76
	c12.8-5.12,25.6-8.533,36.693-11.947c11.093-3.413,33.28-10.24,33.28-10.24c0.853-0.853,2.56-1.707,1.707-5.973l-1.707-5.12
	c-4.267-16.213-35.84-34.133-51.2-29.867c-2.56,0.853-4.267-0.853-5.12-3.413c-0.853-2.56,0.853-4.267,3.413-5.12
	c9.387-2.56,23.04,0.853,36.693,8.533c13.653,7.68,23.04,17.92,25.6,27.307l1.707,5.12c0.853,7.68-1.707,12.8-7.68,15.36
	c-1.707,0.853-22.187,7.68-34.133,10.24c-11.947,3.413-24.747,7.68-38.4,12.8c2.56,28.16,1.707,57.173-3.413,98.133
	c0,1.707-1.707,3.413-3.413,3.413l-197.973,52.907l0,0C219.376,503.753,218.522,503.753,218.522,503.753z M414.789,194.847
	c-0.853,0-1.707,0-2.56-0.853c-1.707-0.853-2.56-3.413-1.707-5.973l47.787-83.627c4.267-6.827,5.12-15.36,2.56-23.04
	c-1.707-7.68-6.827-14.507-13.653-17.92c-15.36-9.387-31.573-5.12-40.96,11.093l0,0l0,0l-12.8,19.627
	c-1.707,1.707-4.267,2.56-5.973,0.853c-1.707-1.707-2.56-4.267-0.853-5.973l12.8-19.627l4.267-6.827
	c8.533-14.507,3.413-32.427-11.093-40.96c-14.507-8.533-32.427-3.413-40.96,11.093l-12.8,22.187l0,0l0,0
	c-0.853,1.707-3.413,2.56-5.973,1.707c-1.707-0.853-2.56-3.413-1.707-5.973l0,0c8.533-15.36,3.413-32.427-7.68-38.4
	c-8.533-5.12-22.187-4.267-32.427,6.827c-1.707,1.707-4.267,1.707-5.973,0c-1.707-1.707-1.707-4.267,0-5.973
	c12.8-14.507,31.573-14.507,42.667-8.533c7.68,4.267,13.653,13.653,15.36,24.747l0,0c11.093-18.773,34.133-24.747,52.053-13.653
	c14.507,8.533,21.333,23.893,18.773,39.253c11.093-5.12,23.893-5.12,35.84,1.707c8.533,5.12,15.36,13.653,17.92,23.04
	s1.707,20.48-3.413,29.013l-47.787,83.627C417.349,193.993,416.496,194.847,414.789,194.847z M29.936,171.807
	c-1.707,0-3.413-0.853-4.267-2.56c-0.853-2.56,0.853-4.267,2.56-5.12l25.6-8.533c2.56-0.853,4.267,0.853,5.12,2.56
	c0.853,2.56-0.853,4.267-2.56,5.12l-25.6,8.533C30.789,171.807,30.789,171.807,29.936,171.807z M47.002,112.073H29.936
	c-2.56,0-4.267-1.707-4.267-4.267s1.707-4.267,4.267-4.267h17.067c2.56,0,4.267,1.707,4.267,4.267S49.562,112.073,47.002,112.073z
	 M55.536,60.873c-0.853,0-2.56,0-3.413-0.853L35.056,42.953c-1.707-1.707-1.707-4.267,0-5.973c1.707-1.707,4.267-1.707,5.973,0
	l17.067,17.067c1.707,1.707,1.707,4.267,0,5.973C58.096,60.873,56.389,60.873,55.536,60.873z M106.736,26.74
	c-1.707,0-3.413-0.853-3.413-2.56L94.789,7.113c-0.853-1.707,0-4.267,1.707-5.973c1.707-0.853,4.267,0,5.973,1.707l8.533,17.067
	c0.853,1.707,0,4.267-1.707,5.973C108.442,26.74,107.589,26.74,106.736,26.74z"/>
</svg>